<?xml version="1.0" encoding="UTF-8"?>
<svg xmlns="http://www.w3.org/2000/svg" xmlns:xlink="http://www.w3.org/1999/xlink" viewBox="0 0 240 256" width="240" height="256">
 <path d="M120 6 234 44v104c0 62-49.5 82.5-114 102C41.5 230.5-8 210-8 148V44z" fill="none" data-om-id="6f765062:9"/>
 <path d="M120 8 226 44v100c0 58-46 79-106 96-60-17-106-38-106-96V44z" fill="#da291c" data-om-id="6f765062:10"/>
 <path d="M120 24 210 55v89c0 47-37.5 66.5-90 82-52.5-15.5-90-35-90-82V55z" fill="none" stroke="#b8873b" stroke-width="3.5" opacity=".85" data-om-id="6f765062:11"/>
 <path d="M64 196v-62a56 56 0 0 1 112 0v62" fill="none" stroke="#fff" stroke-width="14" stroke-linecap="square" data-om-id="6f765062:12"/>
 <g fill="#b8873b" data-om-id="6f765062:13"><rect x="88" y="158" width="12" height="38" rx="2" data-om-id="6f765062:14"/><rect x="114" y="140" width="12" height="56" rx="2" data-om-id="6f765062:15"/><rect x="140" y="158" width="12" height="38" rx="2" data-om-id="6f765062:16"/></g>
 <path d="M120 96l5.6 11.6 12.4 1.9-9 9 2.1 12.6L120 125l-11.1 6.1 2.1-12.6-9-9 12.4-1.9z" fill="#b8873b" data-om-id="6f765062:17"/>
</svg>